<?xml version="1.0"?>
<svg xmlns="http://www.w3.org/2000/svg" width="512" height="512" viewBox="0 0 128 128"><g><path d="M121.25,99.5h-7.375v-8.75a1.75,1.75,0,0,0-1.75-1.75H71V80.251h41.125a1.75,1.75,0,0,0,1.75-1.75V62.247A31.786,31.786,0,0,0,82.125,30.5H71V26.922A6.219,6.219,0,0,0,70.527,14.5H57.473A6.219,6.219,0,0,0,57,26.922V30.5H45.875a31.786,31.786,0,0,0-31.75,31.75V78.5a1.751,1.751,0,0,0,1.75,1.75H57V89H15.875a1.751,1.751,0,0,0-1.75,1.75V99.5H6.75A6.758,6.758,0,0,0,0,106.249v5.5a1.751,1.751,0,0,0,1.75,1.75h124.5a1.75,1.75,0,0,0,1.75-1.75v-5.5A6.758,6.758,0,0,0,121.25,99.5ZM54.75,20.724A2.725,2.725,0,0,1,57.473,18H70.527a2.723,2.723,0,1,1,0,5.445H57.473A2.725,2.725,0,0,1,54.75,20.724Zm5.75,6.284h7V30.5h-7ZM17.625,62.247A28.282,28.282,0,0,1,45.875,34h36.25a28.282,28.282,0,0,1,28.25,28.25v14.5H17.625Zm42.875,18h7V89h-7ZM17.625,92.5h92.75v7H17.625ZM124.5,110H3.5v-3.75A3.254,3.254,0,0,1,6.75,103h114.5a3.254,3.254,0,0,1,3.25,3.25Z"/><path d="M82.125,42a20.273,20.273,0,0,1,20.25,20.25,1.75,1.75,0,1,0,3.5,0A23.777,23.777,0,0,0,82.125,38.5a1.75,1.75,0,0,0,0,3.5Z"/></g></svg>
