<svg id="Capa_1" enable-background="new 0 0 512 512" height="512" viewBox="0 0 512 512" width="512" xmlns="http://www.w3.org/2000/svg"><g><path d="m512 298.5h-30v-60h-30v-126c0-38.047-30.953-69-69-69h-254c-38.047 0-69 30.953-69 69v126h-30v60h-30v135h31v35h30v-35h392v35h30v-35h29zm-383-225h254c21.505 0 39 17.495 39 39v6h-332v-6c0-21.505 17.495-39 39-39zm-39 75h332v90h-51v-19.5c0-22.331-18.169-40.5-40.5-40.5h-149c-22.332 0-40.5 18.169-40.5 40.5v19.5h-51zm251 90h-170v-19.5c0-5.79 4.71-10.5 10.5-10.5h149c5.79 0 10.5 4.71 10.5 10.5zm-281 30h392v30h-392zm-30 60h452v75h-452z"/></g></svg>