<svg id="Capa_1" enable-background="new 0 0 512 512" height="512" viewBox="0 0 512 512" width="512" xmlns="http://www.w3.org/2000/svg"><g><path d="m477.648 319.623c2.585-5.984 4.019-12.578 4.019-19.5 0-13.332-5.316-25.445-13.941-34.333 8.624-8.887 13.941-21.001 13.941-34.334 0-18.506-10.242-34.664-25.355-43.104 15.633-15.223 25.355-36.487 25.355-59.979 0-46.18-37.57-83.75-83.75-83.75h-318.25c-27.202 0-49.333 22.131-49.333 49.333 0 13.332 5.317 25.446 13.94 34.333-8.624 8.887-13.94 21.001-13.94 34.333 0 18.55 10.292 34.741 25.465 43.164-15.696 15.231-25.465 36.539-25.465 60.085 0 20.441 7.361 39.194 19.572 53.75h-49.906v41.781c0 26.912 21.894 48.806 48.805 48.806h1.195v57.167h94v-57.165h224v57.167h94v-57.167h1.195c26.911 0 48.805-21.894 48.805-48.806v-41.781zm-110.304-215.225c0 4.944-4.022 8.966-8.962 8.966l-278.715-.074c-10.66 0-19.333-8.673-19.333-19.333s8.673-19.333 19.333-19.333h318.25c29.638 0 53.75 24.112 53.75 53.75s-24.112 53.75-53.75 53.75l-318.25-.167c-10.66 0-19.333-8.673-19.333-19.333s8.673-19.333 19.329-19.333l278.715.074c21.486 0 38.966-17.48 38.966-38.966h-30zm-253.261 107.725h318.25c10.66 0 19.333 8.673 19.333 19.333s-8.673 19.333-19.333 19.333l-278.711.074c-4.944 0-8.966-4.022-8.966-8.966h-30c0 21.486 17.48 38.966 38.97 38.966l278.707-.074c10.66 0 19.333 8.673 19.333 19.333 0 10.661-8.673 19.333-19.333 19.333l-318.25.167c-29.638 0-53.75-24.112-53.75-53.75s24.113-53.749 53.75-53.749zm-.083 225.254h-34v-27.167h34zm318 0h-34v-27.167h34zm50-75.972c0 10.37-8.436 18.806-18.805 18.806h-414.39c-10.369-.001-18.805-8.437-18.805-18.806v-11.781h452z"/></g></svg>